<?xml version="1.0" encoding="UTF-8" standalone="no"?>
<svg
   xmlns:dc="http://purl.org/dc/elements/1.1/"
   xmlns:cc="http://creativecommons.org/ns#"
   xmlns:rdf="http://www.w3.org/1999/02/22-rdf-syntax-ns#"
   xmlns:svg="http://www.w3.org/2000/svg"
   xmlns="http://www.w3.org/2000/svg"
   xmlns:sodipodi="http://sodipodi.sourceforge.net/DTD/sodipodi-0.dtd"
   xmlns:inkscape="http://www.inkscape.org/namespaces/inkscape"
   sodipodi:docname="line-tear.svg"
   inkscape:version="1.0 (unknown)"
   inkscape:export-ydpi="96"
   inkscape:export-xdpi="96"
   inkscape:export-filename="/home/smd/git-repos/pyweek30/line-tear.png"
   id="svg8"
   version="1.1"
   viewBox="0 0 200 200.00001"
   height="200"
   width="200">
  <defs
     id="defs2" />
  <sodipodi:namedview
     inkscape:window-maximized="0"
     inkscape:window-y="0"
     inkscape:window-x="0"
     inkscape:window-height="719"
     inkscape:window-width="1362"
     units="px"
     showgrid="true"
     inkscape:document-rotation="0"
     inkscape:current-layer="layer1"
     inkscape:document-units="px"
     inkscape:cy="118.36772"
     inkscape:cx="-30.338903"
     inkscape:zoom="1.4"
     inkscape:pageshadow="2"
     inkscape:pageopacity="0.0"
     borderopacity="1.0"
     bordercolor="#666666"
     pagecolor="#ffffff"
     id="base" />
  <metadata
     id="metadata5">
    <rdf:RDF>
      <cc:Work
         rdf:about="">
        <dc:format>image/svg+xml</dc:format>
        <dc:type
           rdf:resource="http://purl.org/dc/dcmitype/StillImage" />
        <dc:title></dc:title>
      </cc:Work>
    </rdf:RDF>
  </metadata>
  <g
     id="layer1"
     inkscape:groupmode="layer"
     inkscape:label="Слой 1">
    <rect
       y="0"
       x="0"
       height="200"
       width="200"
       id="rect12"
       style="fill:#ff7f2a;stroke:none;stroke-width:3" />
    <path
       sodipodi:nodetypes="cccc"
       id="path856"
       d="m 68.169127,96.783813 c 0,0 2.848093,-4.111315 5.638833,-5.011995 l 8.847251,-0.99759 c 6.056383,0.807618 9.487837,5.259061 9.487837,5.259061"
       style="fill:none;stroke:#000000;stroke-width:1px;stroke-linecap:butt;stroke-linejoin:miter;stroke-opacity:1" />
    <path
       id="path858"
       d="m 101.05794,90.809806 -10.414106,31.432824 10.776436,1.07143"
       style="fill:none;stroke:#000000;stroke-width:1px;stroke-linecap:butt;stroke-linejoin:miter;stroke-opacity:1" />
    <path
       sodipodi:nodetypes="cccc"
       id="path860"
       d="m 109.35861,96.356354 c 0,0 3.75709,-4.281753 6.62702,-5.1377 3.94554,-0.899173 13.04581,0.411802 13.04581,0.411802 3.11516,0.873713 6.08444,4.989875 6.08444,4.989875"
       style="fill:none;stroke:#000000;stroke-width:1px;stroke-linecap:butt;stroke-linejoin:miter;stroke-opacity:1" />
    <path
       d="m 82.216777,96.913886 a 2.9441559,2.9441559 0 0 1 0.450806,4.138804 2.9441559,2.9441559 0 0 1 -4.138722,0.45157 2.9441559,2.9441559 0 0 1 -0.452323,-4.138644 2.9441559,2.9441559 0 0 1 4.138556,-0.453081"
       sodipodi:arc-type="arc"
       sodipodi:open="true"
       sodipodi:end="5.3886517"
       sodipodi:start="5.3893847"
       sodipodi:ry="2.9441559"
       sodipodi:rx="2.9441559"
       sodipodi:cy="99.208733"
       sodipodi:cx="80.372398"
       sodipodi:type="arc"
       id="path866"
       style="fill:#000000;fill-opacity:1;stroke:none;stroke-width:3;stroke-miterlimit:4;stroke-dasharray:none;stroke-opacity:1" />
    <path
       style="fill:#000000;fill-opacity:1;stroke:none;stroke-width:3;stroke-miterlimit:4;stroke-dasharray:none;stroke-opacity:1"
       id="path866-2"
       sodipodi:type="arc"
       sodipodi:cx="122.49841"
       sodipodi:cy="99.014854"
       sodipodi:rx="2.9441559"
       sodipodi:ry="2.9441559"
       sodipodi:start="5.3893847"
       sodipodi:end="5.3886517"
       sodipodi:open="true"
       sodipodi:arc-type="arc"
       d="m 124.34279,96.720008 a 2.9441559,2.9441559 0 0 1 0.45081,4.138802 2.9441559,2.9441559 0 0 1 -4.13872,0.45157 2.9441559,2.9441559 0 0 1 -0.45233,-4.138642 2.9441559,2.9441559 0 0 1 4.13856,-0.453082" />
    <path
       sodipodi:nodetypes="cccsc"
       id="path885"
       d="m 82.790349,145.62032 c 0,0 2.054585,-5.04933 5.777337,-6.64224 4.886736,-0.514 8.735618,0 8.735618,0 l 8.845516,1.04159 c 4.32563,0.50936 5.27252,6.09662 5.27252,6.09662"
       style="fill:none;stroke:#000000;stroke-width:1px;stroke-linecap:butt;stroke-linejoin:miter;stroke-opacity:1" />
  </g>
  <g
     inkscape:label="Слой 2"
     id="layer2"
     inkscape:groupmode="layer">
    <path
       sodipodi:nodetypes="cccccccccssc"
       id="path854"
       d="m 61.385017,111.86606 c 0,-7.65024 -7.379465,-17.746234 -3.634613,-32.099013 0,0 7.739221,-20.707927 18.361452,-24.779642 0,0 18.385803,-5.010903 28.827694,-4.335089 12.48347,0.597589 18.16682,3.115749 18.16682,3.115749 9.40976,-0.820086 14.61952,7.18281 14.61952,7.18281 7.83448,4.844373 8.65797,10.762634 12.20457,32.178605 -1.63099,7.13163 -11.99257,44.32595 -11.99257,44.32595 -1.94694,6.33896 -16.26358,23.17655 -30.74923,28.73578 0,0 -15.738904,3.5056 -17.988164,0.54478 -2.24926,-2.96082 -23.322599,-12.75551 -23.85317,-27.02834 -0.08831,-2.3757 -0.900562,-15.48011 -3.962309,-27.84159 z"
       style="fill:none;stroke:#000000;stroke-width:1px;stroke-linecap:butt;stroke-linejoin:miter;stroke-opacity:1" />
    <path
       sodipodi:nodetypes="ccccccccccccccccc"
       id="path887"
       d="M 59.390075,104.6275 44.207088,70.187835 43.482496,50.617885 63.260248,47.453987 69.664365,25.621338 98.453713,36.733016 116.8762,23.102222 l 15.39953,23.787709 27.66075,2.119608 -2.81756,20.125088 7.49642,27.140698 -18.69885,9.390875 4.01397,-12.53672 -12.91886,-24.433821 -25.49929,-8.794592 -42.678024,3.930975 z"
       style="fill:#990000;fill-opacity:1;stroke:none;stroke-width:1px;stroke-linecap:butt;stroke-linejoin:miter;stroke-opacity:1" />
    <path
       sodipodi:nodetypes="cccccccccccccccccccccccc"
       id="path889"
       d="m 59.390075,104.6275 2.224883,30.50513 3.084807,22.88139 5.423065,-4.7837 -0.322793,15.58019 6.830799,-6.28898 3.405611,10.05504 6.568103,8.1971 6.914835,-7.38882 12.032705,3.06304 7.5723,-5.96115 9.36425,-2.21364 8.21612,-5.59762 5.00107,-10.97924 5.54236,-14.72194 4.6683,-31.3081 -11.23752,23.96697 -8.4747,10.51489 -4.83318,10.0235 -9.94975,0.78547 -12.292075,0.73832 -10.451664,3.49162 -9.159728,-5.78179 -9.931396,-13.09323"
       style="fill:#850000;fill-opacity:1;stroke:none;stroke-width:1px;stroke-linecap:butt;stroke-linejoin:miter;stroke-opacity:1" />
  </g>
</svg>
